<?xml version="1.0" encoding="UTF-8" standalone="no"?>
<!DOCTYPE svg PUBLIC "-//W3C//DTD SVG 1.1//EN"
 "http://www.w3.org/Graphics/SVG/1.1/DTD/svg11.dtd">
<!-- Generated by graphviz version 14.0.2 (20251019.1705)
 -->
<!-- Pages: 1 -->
<svg width="250pt" height="132pt"
 viewBox="0.00 0.00 250.00 132.00" xmlns="http://www.w3.org/2000/svg" xmlns:xlink="http://www.w3.org/1999/xlink">
<g id="graph0" class="graph" transform="scale(1 1) rotate(0) translate(4 128)">
<polygon fill="white" stroke="none" points="-4,4 -4,-128 246,-128 246,4 -4,4"/>
<g id="clust2" class="cluster">
<title>cluster_associated</title>
</g>
<!-- OrganizationalCollaboration -->
<g id="node1" class="node">
<title>OrganizationalCollaboration</title>
<g id="a_node1"><a xlink:href="../OrganizationalCollaboration" xlink:title="&lt;TABLE&gt;">
<polygon fill="lightgray" stroke="none" points="1,-81.88 1,-98.12 153,-98.12 153,-81.88 1,-81.88"/>
<text xml:space="preserve" text-anchor="start" x="2" y="-85.72" font-family="Arial" font-size="12.00">OrganizationalCollaboration</text>
<polygon fill="none" stroke="black" points="0,-80.88 0,-99.12 154,-99.12 154,-80.88 0,-80.88"/>
</a>
</g>
</g>
<!-- Organization -->
<g id="node3" class="node">
<title>Organization</title>
<g id="a_node3"><a xlink:href="../Organization" xlink:title="&lt;TABLE&gt;">
<polygon fill="lightgray" stroke="none" points="41.88,-9.88 41.88,-26.12 112.12,-26.12 112.12,-9.88 41.88,-9.88"/>
<text xml:space="preserve" text-anchor="start" x="42.88" y="-13.72" font-family="Arial" font-size="12.00">Organization</text>
<polygon fill="none" stroke="black" points="40.88,-8.88 40.88,-27.12 113.12,-27.12 113.12,-8.88 40.88,-8.88"/>
</a>
</g>
</g>
<!-- OrganizationalCollaboration&#45;&gt;Organization -->
<g id="edge1" class="edge">
<title>OrganizationalCollaboration&#45;&gt;Organization</title>
<path fill="none" stroke="black" d="M77,-72.05C77,-64.57 77,-55.58 77,-47.14"/>
<polygon fill="none" stroke="black" points="80.5,-47.3 77,-37.3 73.5,-47.3 80.5,-47.3"/>
</g>
<!-- Invis -->
</g>
</svg>
