<?xml version="1.0" encoding="UTF-8" standalone="no"?>
<!DOCTYPE svg PUBLIC "-//W3C//DTD SVG 1.1//EN"
 "http://www.w3.org/Graphics/SVG/1.1/DTD/svg11.dtd">
<!-- Generated by graphviz version 14.0.2 (20251019.1705)
 -->
<!-- Pages: 1 -->
<svg width="174pt" height="132pt"
 viewBox="0.00 0.00 174.00 132.00" xmlns="http://www.w3.org/2000/svg" xmlns:xlink="http://www.w3.org/1999/xlink">
<g id="graph0" class="graph" transform="scale(1 1) rotate(0) translate(4 128)">
<polygon fill="white" stroke="none" points="-4,4 -4,-128 169.75,-128 169.75,4 -4,4"/>
<g id="clust2" class="cluster">
<title>cluster_associated</title>
</g>
<!-- ChangeEvent -->
<g id="node1" class="node">
<title>ChangeEvent</title>
<g id="a_node1"><a xlink:href="../ChangeEvent" xlink:title="&lt;TABLE&gt;">
<polygon fill="lightgray" stroke="none" points="1,-81.88 1,-98.12 76.5,-98.12 76.5,-81.88 1,-81.88"/>
<text xml:space="preserve" text-anchor="start" x="2" y="-85.72" font-family="Arial" font-size="12.00">ChangeEvent</text>
<polygon fill="none" stroke="black" points="0,-80.88 0,-99.12 77.5,-99.12 77.5,-80.88 0,-80.88"/>
</a>
</g>
</g>
<!-- prov_Activity -->
<g id="node3" class="node">
<title>prov_Activity</title>
<g id="a_node3"><a xlink:href="https://w3id.org/citydata/imported/prov/latest/Activity" xlink:title="&lt;TABLE&gt;">
<polygon fill="lightgray" stroke="none" points="5.5,-9.88 5.5,-26.12 72,-26.12 72,-9.88 5.5,-9.88"/>
<text xml:space="preserve" text-anchor="start" x="6.5" y="-13.72" font-family="Arial" font-size="12.00">prov:Activity</text>
<polygon fill="none" stroke="black" points="4.5,-8.88 4.5,-27.12 73,-27.12 73,-8.88 4.5,-8.88"/>
</a>
</g>
</g>
<!-- ChangeEvent&#45;&gt;prov_Activity -->
<g id="edge1" class="edge">
<title>ChangeEvent&#45;&gt;prov_Activity</title>
<path fill="none" stroke="black" d="M38.75,-72.05C38.75,-64.57 38.75,-55.58 38.75,-47.14"/>
<polygon fill="none" stroke="black" points="42.25,-47.3 38.75,-37.3 35.25,-47.3 42.25,-47.3"/>
</g>
<!-- Invis -->
</g>
</svg>
