<?xml version="1.0" encoding="UTF-8" standalone="no"?>
<!DOCTYPE svg PUBLIC "-//W3C//DTD SVG 1.1//EN"
 "http://www.w3.org/Graphics/SVG/1.1/DTD/svg11.dtd">
<!-- Generated by graphviz version 14.0.2 (20251019.1705)
 -->
<!-- Pages: 1 -->
<svg width="161pt" height="132pt"
 viewBox="0.00 0.00 161.00 132.00" xmlns="http://www.w3.org/2000/svg" xmlns:xlink="http://www.w3.org/1999/xlink">
<g id="graph0" class="graph" transform="scale(1 1) rotate(0) translate(4 128)">
<polygon fill="white" stroke="none" points="-4,4 -4,-128 157.38,-128 157.38,4 -4,4"/>
<g id="clust2" class="cluster">
<title>cluster_associated</title>
</g>
<!-- Role -->
<g id="node1" class="node">
<title>Role</title>
<g id="a_node1"><a xlink:href="../Role" xlink:title="&lt;TABLE&gt;">
<polygon fill="lightgray" stroke="none" points="24.62,-81.88 24.62,-98.12 52.12,-98.12 52.12,-81.88 24.62,-81.88"/>
<text xml:space="preserve" text-anchor="start" x="25.62" y="-85.72" font-family="Arial" font-size="12.00">Role</text>
<polygon fill="none" stroke="black" points="23.62,-80.88 23.62,-99.12 53.12,-99.12 53.12,-80.88 23.62,-80.88"/>
</a>
</g>
</g>
<!-- skos_Concept -->
<g id="node3" class="node">
<title>skos_Concept</title>
<g id="a_node3"><a xlink:href="https://w3id.org/citydata/imported/skos/latest/Concept" xlink:title="&lt;TABLE&gt;">
<polygon fill="lightgray" stroke="none" points="1,-9.88 1,-26.12 75.75,-26.12 75.75,-9.88 1,-9.88"/>
<text xml:space="preserve" text-anchor="start" x="2" y="-13.72" font-family="Arial" font-size="12.00">skos:Concept</text>
<polygon fill="none" stroke="black" points="0,-8.88 0,-27.12 76.75,-27.12 76.75,-8.88 0,-8.88"/>
</a>
</g>
</g>
<!-- Role&#45;&gt;skos_Concept -->
<g id="edge1" class="edge">
<title>Role&#45;&gt;skos_Concept</title>
<path fill="none" stroke="black" d="M38.38,-72.05C38.38,-64.57 38.38,-55.58 38.38,-47.14"/>
<polygon fill="none" stroke="black" points="41.88,-47.3 38.38,-37.3 34.88,-47.3 41.88,-47.3"/>
</g>
<!-- Invis -->
</g>
</svg>
